<?xml version="1.0" encoding="UTF-8" standalone="no"?>
<!-- Created with Inkscape (http://www.inkscape.org/) -->

<svg
   width="203.51959mm"
   height="162.91772mm"
   viewBox="0 0 203.51959 162.91772"
   version="1.1"
   id="svg5"
   xml:space="preserve"
   inkscape:version="1.2.2 (732a01da63, 2022-12-09)"
   sodipodi:docname="Caballos.svg"
   xmlns:inkscape="http://www.inkscape.org/namespaces/inkscape"
   xmlns:sodipodi="http://sodipodi.sourceforge.net/DTD/sodipodi-0.dtd"
   xmlns="http://www.w3.org/2000/svg"
   xmlns:svg="http://www.w3.org/2000/svg"><sodipodi:namedview
     id="namedview7"
     pagecolor="#ffffff"
     bordercolor="#000000"
     borderopacity="0.25"
     inkscape:showpageshadow="2"
     inkscape:pageopacity="0.0"
     inkscape:pagecheckerboard="0"
     inkscape:deskcolor="#d1d1d1"
     inkscape:document-units="mm"
     showgrid="false"
     inkscape:zoom="0.4204826"
     inkscape:cx="86.805018"
     inkscape:cy="650.44308"
     inkscape:window-width="1920"
     inkscape:window-height="1111"
     inkscape:window-x="-9"
     inkscape:window-y="-9"
     inkscape:window-maximized="1"
     inkscape:current-layer="layer1" /><defs
     id="defs2" /><g
     inkscape:label="Capa 1"
     inkscape:groupmode="layer"
     id="layer1"
     transform="translate(3.5838167,-29.391082)"><path
       style="fill:#000000;stroke-width:0.264583"
       d="m 173.35292,192.19177 c -0.43657,-0.0568 -1.12422,-0.23328 -1.52811,-0.39211 -0.89723,-0.35285 -0.84068,-0.62915 0.69306,-3.38659 0.6833,-1.22846 2.01914,-2.94285 3.5283,-4.52813 1.97374,-2.0733 2.45858,-2.74376 2.58836,-3.57929 0.0878,-0.56546 0.3948,-2.3378 0.68215,-3.93853 0.57237,-3.18849 0.54792,-3.64931 -0.56145,-10.58333 -1.525,-9.53182 -1.57595,-9.70628 -3.77244,-12.91917 -0.61398,-0.8981 -1.45861,-2.57288 -1.87694,-3.72174 -0.60904,-1.6726 -1.0839,-2.43706 -2.38309,-3.83646 -2.86625,-3.08733 -5.45342,-6.60061 -7.67672,-10.42468 -0.40569,-0.6978 -0.78311,-1.22324 -0.8387,-1.16765 -0.25511,0.25511 1.67248,7.10434 2.9098,10.33922 0.87443,2.28614 0.87626,3.65134 0.008,5.91559 -2.28379,5.9553 -2.92029,7.70303 -3.96807,10.89569 -2.15429,6.56426 -3.38701,11.67445 -3.81737,15.82474 -0.3022,2.91429 -0.67894,3.92884 -1.88091,5.06516 -1.11125,1.05053 -1.76253,1.22923 -2.70266,0.74147 -0.91794,-0.47622 -1.67035,-0.29461 -2.21346,0.53427 -0.36562,0.55801 -0.37493,0.82275 -0.0732,2.08066 0.37659,1.56982 0.17714,2.70214 -0.8216,4.66423 -0.4578,0.89937 -0.60991,0.98814 -2.02104,1.17951 -0.83929,0.11383 -3.43099,0.21196 -5.75932,0.21807 -3.48965,0.009 -4.45412,-0.0741 -5.49011,-0.47381 -0.7277,-0.28078 -1.25677,-0.65252 -1.25677,-0.88305 0,-0.21899 0.44273,-1.19139 0.98383,-2.16093 1.00905,-1.80795 2.39928,-3.31581 5.9733,-6.47869 2.32685,-2.05918 3.06793,-3.05404 4.76486,-6.3966 2.48204,-4.88901 6.00712,-17.65971 5.65155,-20.47445 -0.77275,-6.11717 -0.98937,-6.97098 -2.70137,-10.64791 -1.58126,-3.39617 -5.9488,-14.779 -8.71768,-22.72034 -0.68497,-1.96453 -1.27916,-3.60774 -1.32043,-3.65158 -0.0413,-0.0438 -1.01152,0.47485 -2.1561,1.15264 -7.72117,4.57219 -17.29332,7.64141 -27.74565,8.89637 -4.40277,0.52862 -15.432067,0.44825 -20.716067,-0.15097 -2.37155,-0.26893 -4.38694,-0.41394 -4.47865,-0.32223 -0.2216,0.2216 0.37017,7.96281 1.0135,13.25806 0.61884,5.0937 1.15731,8.27441 1.70209,10.05416 0.30135,0.98451 0.363,1.93207 0.24098,3.70417 -0.13742,1.99584 -0.0505,2.91149 0.53707,5.65729 0.79002,3.69193 1.98148,7.94352 3.75315,13.39271 1.35806,4.17703 1.44419,5.2222 0.56196,6.81905 -0.53983,0.97709 -0.73253,1.11845 -1.52464,1.11845 -0.70193,0 -0.99524,0.15648 -1.29864,0.69281 -0.36849,0.65135 -0.34098,0.7697 0.46002,1.97901 1.35435,2.0447 1.39487,3.01532 0.22532,5.39797 -0.5425,1.10522 -0.67932,1.20653 -1.90734,1.41229 -0.7276,0.12192 -3.40651,0.24099 -5.95312,0.26459 -4.6288,0.0429 -5.82084,-0.14944 -5.82084,-0.93927 0,-0.73255 2.21862,-4.73099 3.52316,-6.34947 0.78705,-0.9765 1.56346,-2.10758 1.72535,-2.51355 0.53764,-1.34825 1.02337,-7.0088 0.78907,-9.19558 -0.27343,-2.55204 -1.88352,-9.96754 -2.53708,-11.68491 -0.26977,-0.70889 -0.94772,-1.8842 -1.50654,-2.61181 -1.69891,-2.21201 -2.07766,-3.34119 -2.26304,-6.74687 -0.15574,-2.86115 -0.27501,-3.36464 -1.99879,-8.4379 -1.00824,-2.96735 -1.86001,-5.22954 -1.89281,-5.02708 -0.0328,0.20246 -0.098,4.23764 -0.14487,8.96706 -0.0739,7.45826 -0.15145,8.83263 -0.58447,10.36041 -0.48399,1.70757 -0.48546,1.93538 -0.0483,7.44834 0.24803,3.12779 0.63839,7.27623 0.86746,9.21876 0.54385,4.6119 0.40317,6.19134 -0.70533,7.91879 -0.8307,1.29453 -0.88682,1.33009 -1.84367,1.16843 -0.86084,-0.14542 -1.05943,-0.0745 -1.5549,0.55538 -0.78385,0.9965 -0.93538,1.79819 -0.47813,2.52945 0.68847,1.10103 0.73113,1.96866 0.18392,3.74031 -0.39923,1.29257 -0.67526,1.75897 -1.1234,1.89814 -0.32676,0.1015 -3.15396,0.24882 -6.28265,0.3274 -4.80071,0.12057 -5.8434,0.078 -6.68073,-0.27276 -0.54571,-0.2286 -0.99219,-0.57303 -0.99219,-0.76541 0,-0.86019 2.56487,-4.65487 4.07248,-6.0252 3.37958,-3.07179 3.78718,-3.6111 4.97102,-6.57729 l 1.12448,-2.81746 0.0947,-5.02708 c 0.1365,-7.2459 -0.20072,-10.84246 -1.2652,-13.49375 -0.75193,-1.87284 -0.8739,-2.54335 -1.05882,-5.82083 -0.18568,-3.29101 -0.36125,-4.25013 -1.57408,-8.59896 -1.85997,-6.66928 -3.10102,-11.74072 -3.72295,-15.21354 -0.35876,-2.0033 -0.65698,-2.99288 -0.95683,-3.175 -3.77315,-2.29175 -4.79535,-3.48085 -6.1411,-7.14375 -0.42771,-1.16417 -1.37514,-3.30985 -2.10539,-4.76818 -1.74762,-3.49004 -2.12635,-5.01345 -2.46223,-9.90404 -0.30945,-4.505643 -0.44715,-4.935773 -2.5062,-7.828583 -2.23057,-3.13379 -4.96356,-8.03109 -8.4838,-15.20233 -3.32083,-6.765 -4.67247,-9.27292 -5.58207,-10.3573 -0.33574,-0.40024 -0.46433,-0.38006 -1.59128,0.24981 -0.67431,0.37688 -2.54612,1.00043 -4.15957,1.38567 -2.54502,0.60767 -3.16021,0.86751 -4.64492,1.96195 -0.94125,0.69383 -2.66386,1.73923 -3.82803,2.32311 -2.27151,1.13925 -2.42569,1.29595 -3.06369,3.11385 -0.5369197,1.52987 -1.5852797,2.24198 -3.9130697,2.65798 -1.55878,0.27856 -2.09596,0.25935 -3.89788,-0.13945 -2.46451997,-0.54544 -3.30253997,-0.93601 -4.0516,-1.88828 -0.80687,-1.02578 -1.61795,-3.89103 -1.78869,-6.31879 l -0.14889,-2.11667 3.29765003,-4.92068 c 5.06583997,-7.5591 6.37570997,-10.5762 6.68779997,-15.4044 0.0828,-1.281 0.30239,-1.85886 1.307,-3.43959 0.66411,-1.04495 1.57954,-2.39765 2.0343,-3.00599 l 0.8268197,-1.10607 -0.56311,-2.08695 c -0.5506797,-2.04082 -0.7851697,-6.32376 -0.4010397,-7.324782 0.12407,-0.323334 0.7759297,0.16683 2.7801097,2.090482 1.43991,1.38207 2.92514,2.58993 3.3005,2.68414 0.43661,0.10958 1.12695,-0.0243 1.91624,-0.37157 0.67858,-0.29858 1.42287,-0.60061 1.65399,-0.67118 0.30846,-0.0942 0.5449,-0.88817 0.88911,-2.985673 0.51214,-3.120874 0.62472,-3.542112 0.94662,-3.542112 0.38667,0 3.1802,2.700488 3.94811,3.816617 0.41259,0.599678 0.90158,1.623378 1.08664,2.274878 0.43174,1.51996 0.63661,1.71159 2.23431,2.09004 3.64037,0.8623 7.25206,1.96197 7.12404,2.16909 -0.0791,0.12799 -0.37492,0.23271 -0.65737,0.23271 -0.28245,0 -0.51355,0.11906 -0.51355,0.26458 0,0.14552 0.28434,0.26459 0.63186,0.26459 1.69969,0 10.21606,3.11946 10.21606,3.74204 0,0.13467 0.92273,0.84749 2.05052,1.58405 l 2.05052,1.33919 -1.19063,-0.13933 c -1.08547,-0.12703 -1.14483,-0.10559 -0.67214,0.24281 0.28517,0.21018 2.30923,1.28709 4.49792,2.39313 4.33117,2.18873 4.78891,2.47977 3.90006,2.47977 -0.32015,0 -0.58209,0.11906 -0.58209,0.26458 0,0.14553 0.10337,0.26459 0.2297,0.26459 0.12633,0 2.10303,0.90818 4.39267,2.01819 2.64986,1.28463 4.04166,2.09317 3.8292,2.22448 -0.18358,0.11345 -0.52318,0.13548 -0.75466,0.0489 -0.36068,-0.13485 -0.37015,-0.095 -0.0662,0.27886 0.42067,0.51739 6.33442,3.43948 10.62555,5.25026 2.50801,1.05834 2.93221,1.31487 2.41393,1.45977 -0.474,0.13253 0.4195,0.48675 3.63009,1.43913 2.34237,0.69484 5.78047,1.94272 7.64023,2.77307 12.03557,5.37374 13.176627,5.7682 18.113307,6.26178 5.68128,0.56804 12.28101,-0.22133 24.55868,-2.93735 9.18513,-2.0319 10.94191,-2.25972 17.33021,-2.24745 4.9645,0.01 5.91143,0.0852 8.89125,0.71008 5.05866,1.06088 9.96091,2.82786 14.1402,5.09674 1.43458,0.77881 2.94538,1.33894 4.63021,1.71664 7.57412,1.69793 12.33248,6.20469 15.83552,14.99818 2.03723,5.11396 3.39986,10.675433 5.98042,24.408683 0.66994,3.56526 1.68803,8.88459 2.26242,11.82074 0.57439,2.93614 1.04085,5.55552 1.03658,5.82083 -0.004,0.26531 -0.6515,-0.70824 -1.4383,-2.16345 -1.22519,-2.26604 -2.32962,-4.1161 -1.86819,-3.12943 0.3425,0.73234 1.45805,6.79355 1.7133,9.30903 0.15292,1.50701 0.27804,4.07676 0.27804,5.71056 0,2.92235 -0.4222,6.06656 -0.78453,5.84262 -0.10164,-0.0628 -0.32985,-0.92586 -0.50713,-1.91786 -0.49417,-2.76521 -0.74178,-2.74293 -0.79101,0.0712 -0.0528,3.01906 -0.3157,4.34658 -1.25253,6.32519 -0.65779,1.38927 -2.57121,3.85016 -2.99362,3.85016 -0.10914,0 -0.21669,-1.22039 -0.23899,-2.71198 -0.0667,-4.45754 -0.57909,-6.52625 -0.91753,-3.70417 -0.0829,0.69123 -0.42109,1.96078 -0.75153,2.82123 l -0.6008,1.56445 -0.57505,-2.88737 c -0.70315,-3.53062 -1.48945,-5.90484 -2.53352,-7.64987 l -0.7915,-1.32292 0.16006,5.02709 c 0.28712,9.01783 1.21765,16.05105 3.21989,24.33695 1.21184,5.01501 1.21299,5.02431 0.78587,6.35 -0.23526,0.7302 -0.65396,1.61966 -0.93045,1.97659 -0.45383,0.58588 -0.57275,0.61705 -1.22302,0.32076 -0.879,-0.40049 -1.27013,-0.11313 -2.21655,1.62852 l -0.63881,1.17557 0.70496,1.2029 c 0.78428,1.33829 0.90142,2.96426 0.34673,4.81287 l -0.31756,1.05834 -2.90325,0.30588 c -2.79752,0.29475 -7.87382,0.38698 -9.51783,0.17293 z m 10.95277,-51.87412 c -0.61001,-1.75731 -1.09233,-3.97205 -1.59897,-7.34219 l -0.35797,-2.38125 -0.13229,3.175 -0.13229,3.175 -0.44186,-0.97386 c -0.24303,-0.53562 -0.62779,-1.90483 -0.85503,-3.0427 -0.92307,-4.62217 -1.07782,-7.0834 -1.08109,-17.19424 -0.002,-5.55406 -0.026,-10.07552 -0.0539,-10.04768 -0.0278,0.0278 -0.40904,1.47645 -0.84716,3.21913 -1.56424,6.22208 -2.30359,12.44086 -1.85907,15.63684 0.53065,3.81524 3.34298,10.63615 6.17978,14.98818 0.82784,1.27001 1.55078,2.30912 1.60653,2.30912 0.0557,0 -0.13628,-0.68461 -0.42673,-1.52135 z"
       id="path2487" /></g></svg>
